<svg width="162" height="175" viewBox="0 0 162 175" fill="none" xmlns="http://www.w3.org/2000/svg">
<path d="M139.723 22.5425C124.148 18.4918 113.473 22.3781 94.9693 22.3781C77.9296 22.3781 66.0817 26.9227 59.4256 36.012C57.4287 38.6794 56.164 42.0386 55.6316 46.0892C55.0991 50.041 55.8312 53.7952 57.8281 57.352C59.9581 60.8098 63.0198 63.8725 67.0135 66.54C73.2703 70.7883 81.4573 74.3943 91.5747 77.3582C101.692 80.3221 109.279 82.644 114.338 84.3231C119.531 86.0031 124.456 87.8799 129.115 89.9544C133.775 92.0297 138.101 94.4002 142.095 97.0678C146.221 99.7353 149.749 102.749 152.678 106.108C158.935 113.221 161.863 121.372 161.464 130.56C161.198 139.748 158.868 147.158 154.475 152.789C150.216 158.42 144.424 162.966 137.103 166.423C123.391 173.141 102.917 173.49 78.6007 173.9C54.2846 174.31 24.2697 173.9 5.29828 173.9L1.90259 141.696C22.9029 146.63 56.1606 151.358 78.6007 151.358C100.372 150.526 116.269 150.715 122.526 141.823C127.318 135.105 127.718 128.387 123.724 121.669C119.996 115.642 112.541 110.505 101.359 106.257C96.0343 104.181 89.9772 102.156 83.188 100.18C76.5319 98.1054 69.3432 95.6848 61.6221 92.9188C54.0342 90.152 45.6807 86.5876 41.2481 80.5093C31.0611 66.54 34.4568 66.1478 34.4568 51.5259L19.8882 44.7554C19.8882 37.2469 20.7468 41.7422 25.6724 36.012C30.5979 30.183 40.8549 46.0892 51.4352 19.3222C65.0138 12.5052 77.0135 3.61573 96.9819 3.22055C117.084 3.22055 127.984 -1.12544 146.089 3.2216L139.723 22.5425Z" fill="url(#paint0_linear_2041_7)"/>
<path d="M36.9112 71.5573C36.6634 74.3668 36.9112 90.8224 36.9112 94.1416V173.743C36.9112 173.799 36.9112 173.827 36.9003 173.848C36.8907 173.867 36.8754 173.883 36.8566 173.892C36.8352 173.903 36.8072 173.903 36.7512 173.903H1.48614C1.43105 173.903 1.4035 173.903 1.38231 173.892C1.36367 173.883 1.34842 173.868 1.33871 173.85C1.32767 173.829 1.32716 173.8 1.32613 173.744C-0.524888 72.0128 1.31016 9.97571 1.32887 0.656098C1.32896 0.614135 1.329 0.593154 1.33992 0.571807C1.34953 0.553004 1.36479 0.537779 1.38361 0.528203C1.40498 0.517331 1.43299 0.517331 1.48902 0.517331H33.8067C33.8627 0.517331 33.8907 0.517331 33.9121 0.52823C33.9309 0.537818 33.9462 0.553116 33.9558 0.571932C33.9667 0.593323 33.9667 0.621326 33.9667 0.677331V34.4607C33.9667 34.7901 33.9667 34.9548 34.0009 34.9847C34.0305 35.0106 34.0713 35.0168 34.1073 35.0008C34.1488 34.9824 34.1988 34.8212 34.2989 34.4988C42.9703 6.56413 76.6763 0.51733 100.51 0.517331C109.103 0.517331 149.357 0.00702255 156.558 7.16588e-05C156.603 2.82962e-05 156.626 6.61492e-06 156.647 0.0108985C156.666 0.0204731 156.681 0.0357915 156.691 0.0546049C156.702 0.0760066 156.702 0.104004 156.702 0.16V25.603C156.702 25.659 156.702 25.687 156.691 25.7084C156.681 25.7272 156.666 25.7425 156.647 25.7521C156.626 25.763 156.598 25.763 156.542 25.763C140.938 25.7634 123.633 25.8223 115.808 25.8223C102.371 25.763 85.5776 29.3762 79.1653 31.9866C72.753 34.597 67.0095 37.7766 61.6442 41.6438C56.4103 45.5105 51.6944 49.0481 47.5073 53.4946C47.5067 53.4953 47.5064 53.4956 47.5061 53.4959C47.5059 53.4962 47.5056 53.4964 47.5053 53.4967C47.505 53.497 47.5057 53.4963 47.5055 53.4966C47.471 53.5312 44.2462 56.7738 40.9954 61.5439C37.7271 66.3397 37.1589 68.7478 36.9112 71.5573Z" fill="#27272A"/>
<defs>
<linearGradient id="paint0_linear_2041_7" x1="51.4352" y1="57.9667" x2="92.529" y2="180.921" gradientUnits="userSpaceOnUse">
<stop stop-color="#6A1FB4"/>
<stop offset="1" stop-color="#E8853E"/>
</linearGradient>
</defs>
</svg>
