<svg width="24" height="28" viewBox="0 0 24 28" fill="none" xmlns="http://www.w3.org/2000/svg">
<path d="M20.5 3.5C18.2066 2.87108 16.6348 3.47446 13.9102 3.47446C11.4012 3.47446 9.65663 4.18006 8.67655 5.59128C8.38251 6.00544 8.1963 6.52698 8.1179 7.15588C8.03949 7.76945 8.1473 8.35234 8.44133 8.90456C8.75496 9.44143 9.20579 9.91695 9.79384 10.3311C10.7151 10.9907 11.9206 11.5506 13.4104 12.0107C14.9001 12.4709 16.0173 12.8314 16.7622 13.0921C17.5268 13.353 18.252 13.6444 18.938 13.9664C19.6241 14.2887 20.2611 14.6567 20.8493 15.0709C21.4568 15.4851 21.9763 15.953 22.4076 16.4745C23.3289 17.5789 23.76 18.8444 23.7013 20.2709C23.662 21.6975 23.319 22.848 22.6722 23.7223C22.045 24.5966 21.1922 25.3023 20.1141 25.8391C18.0951 26.8821 15.0804 26.9363 11.5 27C7.91956 27.0637 3.5 27 0.706543 27L0.206543 22C3.29874 22.7659 8.19579 23.5 11.5 23.5C14.7057 23.3709 17.0465 23.4002 17.9678 22.0196C18.6733 20.9766 18.7323 19.9335 18.1443 18.8905C17.5953 17.9548 16.4976 17.1571 14.8511 16.4975C14.067 16.1753 13.1751 15.8609 12.1755 15.5541C11.1954 15.232 10.1369 14.8562 8.99998 14.4267C7.88269 13.9971 6.65267 13.4437 6 12.5C4.5 10.3311 5 10.2702 5 8L2.85484 6.9488C2.85484 5.78302 2.98128 6.48096 3.70654 5.59128C4.43179 4.68627 5.9421 7.15588 7.5 3C9.49938 1.94159 11.2663 0.561399 14.2065 0.500042C17.1664 0.500042 18.7715 -0.174722 21.4373 0.500205L20.5 3.5Z" fill="url(#paint0_linear_2003_4)"/>
<path d="M5.36138 11.1101C5.32491 11.5463 5.36138 14.1012 5.36138 14.6166V26.8404C5.36138 26.8964 5.36138 26.9244 5.35048 26.9458C5.3409 26.9646 5.3256 26.9799 5.30678 26.9895C5.28539 27.0004 5.25739 27.0004 5.20138 27.0004H0.279329C0.224192 27.0004 0.196624 27.0004 0.175419 26.9897C0.156765 26.9804 0.141512 26.9654 0.13181 26.9469C0.120781 26.9259 0.1203 26.8977 0.119338 26.8414C-0.141982 11.5588 0.104916 2.0769 0.121233 0.239483C0.12173 0.183539 0.121979 0.155567 0.132946 0.134369C0.14265 0.115613 0.15776 0.100637 0.176601 0.0911002C0.197896 0.0803215 0.225954 0.0803215 0.282069 0.0803215H4.76783C4.82383 0.0803215 4.85184 0.0803215 4.87323 0.0912208C4.89204 0.100808 4.90734 0.116106 4.91693 0.134922C4.92783 0.156314 4.92783 0.184316 4.92783 0.240321V4.3072C4.92783 4.67873 4.92783 4.8645 4.95874 4.89404C4.98731 4.92135 5.02121 4.92907 5.05879 4.91683C5.09944 4.90359 5.18275 4.73022 5.34935 4.38348C7.03488 0.875569 11.4961 0.0803214 14.7261 0.0803215C15.945 0.0803215 21.4903 0.0067912 22.8432 0.000436917C22.8968 0.000184975 22.9236 5.90032e-05 22.9451 0.0109216C22.964 0.020447 22.9794 0.0358438 22.989 0.0546465C23 0.0760886 23 0.104059 23 0.16V3.84C23 3.89601 23 3.92401 22.9891 3.9454C22.9795 3.96421 22.9642 3.97951 22.9454 3.9891C22.924 4 22.8961 4 22.8401 4.00001C20.5788 4.00042 18.1081 4.0092 16.9786 4.0092C15 4 12.5273 4.56099 11.5831 4.96628C10.6389 5.37157 9.79323 5.86524 9.00321 6.46567C8.23309 7.06561 7.53912 7.6145 6.92291 8.30421C6.92232 8.30486 6.92202 8.30519 6.92178 8.30547C6.92152 8.30575 6.92138 8.30591 6.92112 8.30618C6.92087 8.30645 6.92054 8.3068 6.91988 8.30751C6.89026 8.33908 6.42832 8.83507 5.96276 9.55539C5.48153 10.3 5.39786 10.6739 5.36138 11.1101Z" fill="#FAFAFA"/>
<defs>
<linearGradient id="paint0_linear_2003_4" x1="7.5" y1="9" x2="14.1529" y2="27.878" gradientUnits="userSpaceOnUse">
<stop stop-color="#7B27CF"/>
<stop offset="1" stop-color="#E8853E"/>
</linearGradient>
</defs>
</svg>
