<svg width="163" height="222" viewBox="0 0 163 222" fill="none" xmlns="http://www.w3.org/2000/svg">
<g clip-path="url(#clip0_9_3)">
<path d="M33.749 216.5H34.249V216V116.635C34.249 115.579 34.2343 113.474 34.2162 110.864C34.1627 103.184 34.0788 91.1287 34.2479 88.5325C34.4714 85.1023 34.9754 82.1675 37.9546 76.2504C39.4495 73.2814 40.9386 70.7898 42.0536 69.0412C42.611 68.167 43.0746 67.4791 43.3982 67.0105C43.56 66.7762 43.6867 66.5968 43.7727 66.4764C43.8157 66.4162 43.8485 66.3708 43.8704 66.3406L43.8949 66.3069L43.9009 66.2988L43.9023 66.2969L43.9025 66.2965L43.9027 66.2966L43.9104 66.2855C47.7354 60.7871 52.0456 56.4085 56.864 51.5901C61.7702 46.804 67.1532 42.7971 73.0137 39.5678C78.8348 36.3603 85.2518 34.8135 92.2757 34.9325V34.9326H92.2841C99.4914 34.9326 138.465 36.9989 144.458 37.4983L144.884 37.5337L144.986 37.1193L152.986 4.56169L153.106 4.07351L152.617 3.95619C151.07 3.58497 147.258 3.12387 142.315 2.64089C137.355 2.15617 131.213 1.64571 124.974 1.18058C112.504 0.250947 99.6151 -0.5 94.9999 -0.5C83.8218 -0.5 69.6064 2.01273 57.2344 9.06563C45.8034 15.5821 35.9493 25.9749 31.539 41.812V0V-0.5H31.039H0.99999H0.49999V0C0.49999 1.87833 0.449805 5.70153 0.375176 11.3869C0.013314 38.9543 -0.923248 110.304 0.500045 216.007L0.506687 216.5H1H33.749Z" fill="black" stroke="black"/>
<path d="M78.8297 86.2365C56.7845 72.3162 62.9638 50.607 68.8092 41.4925C53.2773 39.1724 24.8188 43.8788 35.2402 81.265C48.267 127.998 103.36 107.156 124.423 146.89C138 172.5 109.893 186.662 95.3637 187.656H33.7371V215H95.3637C157.491 208.537 158.994 173.239 158.994 161.307C158.994 149.375 159.996 131.975 135.446 114.077C110.896 96.1797 106.386 103.637 78.8297 86.2365Z" stroke="black" stroke-width="4"/>
</g>
<defs>
<clipPath id="clip0_9_3">
<rect width="163" height="222" fill="white"/>
</clipPath>
</defs>
</svg>
