<svg width="159" height="216" viewBox="0 0 159 216" fill="none" xmlns="http://www.w3.org/2000/svg">
<g clip-path="url(#clip0_5_3)">
<path d="M144.88 35.1299C130.788 30.1917 115.371 27.7227 98.6299 27.7227C83.2132 27.7227 72.4938 33.263 66.4717 44.3438C64.665 47.5957 63.5208 51.6908 63.0391 56.6289C62.5573 61.4466 63.2197 66.0234 65.0264 70.3594C66.9535 74.5749 69.7236 78.3086 73.3369 81.5605C78.9977 86.7396 86.4049 91.1357 95.5586 94.749C104.712 98.3623 111.577 101.193 116.154 103.24C120.852 105.288 125.308 107.576 129.523 110.105C133.739 112.635 137.653 115.525 141.267 118.777C145 122.029 148.192 125.703 150.842 129.798C156.503 138.47 159.152 148.406 158.791 159.607C158.55 170.809 156.442 179.842 152.468 186.707C148.614 193.572 143.374 199.113 136.75 203.328C124.344 211.518 107 215.5 85 216C63 216.5 39 216.5 17.5 215V186.707C36.5 192.721 65.5 188.514 85.8027 188.514C105.5 187.5 117.901 184.178 123.562 173.338C127.897 165.148 128.259 156.958 124.646 148.768C121.273 141.421 114.528 135.158 104.411 129.979C99.5934 127.449 94.1133 124.98 87.9707 122.571C81.9486 120.042 75.4447 117.091 68.459 113.719C61.5938 110.346 55.3307 106.191 49.6699 101.253C37.0234 90.0518 30.7002 75.5384 30.7002 57.7129V55.0029C30.7002 45.8493 32.9284 37.7796 37.3848 30.7939C41.8411 23.6878 47.2611 17.9668 53.6445 13.6309C65.9297 5.32031 81.1055 0.924154 99.1719 0.442383C117.359 0.442383 134.642 3.09212 151.022 8.3916L144.88 35.1299Z" fill="#78AAF6"/>
<path d="M33.749 88.5C33.521 92 33.749 112.5 33.749 116.635V216H1C-0.716789 88.5 0.99999 11 0.99999 -3.8147e-06L31.039 -3.8147e-06V46C38.5 10 72.7724 -4.35114e-06 94.9999 -3.8147e-06C104.186 -3.59299e-06 146.478 2.99707 152.5 4.44238L144.5 37C138.5 36.5 99.5107 34.4326 92.2841 34.4326C85.178 34.3122 78.6741 35.8779 72.7724 39.1299C66.8707 42.3818 61.4508 46.4167 56.5127 51.2344C51.695 56.0521 47.3541 60.4596 43.5 66C43.5 66 40.5161 70.0511 37.508 76.0255C34.5 82 33.977 85 33.749 88.5Z" fill="white"/>
</g>
<defs>
<clipPath id="clip0_5_3">
<rect width="159" height="216" fill="white"/>
</clipPath>
</defs>
</svg>
