<svg width="158" height="217" viewBox="0 0 158 217" fill="none" xmlns="http://www.w3.org/2000/svg">
<rect width="158" height="217" fill="#1E1E1E"/>
<path d="M143.88 35.1299C129.788 30.1917 114.371 27.7227 97.6299 27.7227C82.2132 27.7227 71.4938 33.263 65.4717 44.3438C63.665 47.5957 62.5208 51.6908 62.0391 56.6289C61.5573 61.4466 62.2197 66.0234 64.0264 70.3594C65.9535 74.5749 68.7236 78.3086 72.3369 81.5605C77.9977 86.7396 85.4049 91.1357 94.5586 94.749C103.712 98.3623 110.577 101.193 115.154 103.24C119.852 105.288 124.308 107.576 128.523 110.105C132.739 112.635 136.653 115.525 140.267 118.777C144 122.029 147.192 125.703 149.842 129.798C155.503 138.47 158.152 148.406 157.791 159.607C157.55 170.809 155.442 179.842 151.468 186.707C147.614 193.572 142.374 199.113 135.75 203.328C123.344 211.518 106 215.5 84 216C62 216.5 38 216.5 16.5 215V186.707C35.5 192.721 64.5 188.514 84.8027 188.514C104.5 187.5 116.901 184.178 122.562 173.338C126.897 165.148 127.259 156.958 123.646 148.768C120.273 141.421 113.528 135.158 103.411 129.979C98.5934 127.449 93.1133 124.98 86.9707 122.571C80.9486 120.042 74.4447 117.091 67.459 113.719C60.5938 110.346 54.3307 106.191 48.6699 101.253C36.0234 90.0518 29.7002 75.5384 29.7002 57.7129V55.0029C29.7002 45.8493 31.9284 37.7796 36.3848 30.7939C40.8411 23.6878 46.2611 17.9668 52.6445 13.6309C64.9297 5.32031 80.1055 0.924154 98.1719 0.442383C116.359 0.442383 133.642 3.09212 150.022 8.3916L143.88 35.1299Z" fill="black"/>
<path d="M32.749 88.5C32.5211 92 32.749 112.5 32.749 116.635V216H2.2168C2.2168 88.2103 1.49414 18.5342 0.0488281 6.97168L30.0391 4.44238V46C37.5 10 71.7725 -4.35114e-06 94 -3.8147e-06C103.186 -3.59299e-06 145.478 2.99707 151.5 4.44238L143.5 37C137.5 36.5 98.5107 34.4326 91.2842 34.4326C84.1781 34.3122 77.6742 35.8779 71.7725 39.1299C65.8708 42.3818 60.4508 46.4167 55.5127 51.2344C50.695 56.0521 46.3542 60.4596 42.5 66C42.5 66 39.5162 70.0511 36.5081 76.0255C33.5 82 32.977 85 32.749 88.5Z" fill="white"/>
</svg>
