<svg width="177" height="177" viewBox="0 0 177 177" fill="none" xmlns="http://www.w3.org/2000/svg">
<path d="M76.2992 73.0771L76.3041 73.0859L76.3094 73.0945C77.4949 75.0243 79.1906 76.7199 81.3799 78.1865C84.7905 80.5084 89.2317 82.4654 94.6872 84.068C100.11 85.661 104.171 86.9073 106.874 87.8071L106.878 87.8083C109.646 88.7063 112.27 89.7091 114.751 90.8166C117.225 91.9214 119.519 93.1824 121.635 94.5998L121.642 94.6038C123.819 96.0151 125.674 97.6053 127.21 99.3725L127.212 99.3741C130.484 103.105 132.007 107.361 131.798 112.168L131.798 112.175C131.658 117.04 130.43 120.911 128.156 123.833L128.152 123.839C125.924 126.793 122.886 129.189 119.023 131.018L119.017 131.021C115.42 132.788 110.908 133.73 105.637 134.254C100.369 134.778 94.3878 134.88 87.8638 134.99C78.8262 135.143 68.3239 135.084 59.3388 135.033C55.5573 135.012 52.0445 134.992 49.0227 134.99L47.3227 118.823C58.6364 121.423 76.0352 123.871 87.8723 123.871H87.8819L87.8914 123.87C88.8146 123.835 89.7195 123.803 90.605 123.772C95.2957 123.606 99.4395 123.46 102.844 122.927C106.884 122.294 110.031 121.097 111.83 118.534C113.156 116.669 113.895 114.775 114.009 112.857C114.123 110.936 113.608 109.032 112.495 107.155L112.495 107.155L112.49 107.147C110.406 103.769 106.287 100.956 100.254 98.6577C97.3841 97.5363 94.1245 96.4436 90.4763 95.3787C86.917 94.2663 83.0715 92.9678 78.9395 91.4836C74.855 89.99 70.5249 88.1154 68.2508 84.9883C65.5276 81.2438 64.6862 79.403 64.4744 77.5658C64.3667 76.6311 64.4193 75.6775 64.505 74.4297C64.5112 74.3395 64.5176 74.2479 64.524 74.1548C64.6063 72.9679 64.7053 71.5412 64.7053 69.7007V69.382L64.4165 69.2475L56.8957 65.7427C56.9018 64.9251 56.933 64.455 56.9964 64.1626C57.03 64.0077 57.0672 63.9316 57.095 63.89C57.12 63.8527 57.1536 63.8186 57.2248 63.7729C57.2941 63.7285 57.3734 63.6881 57.4948 63.6264C57.5216 63.6128 57.5505 63.5981 57.5818 63.5821C57.7442 63.499 57.9415 63.3943 58.1698 63.2458C58.6291 62.947 59.1881 62.4873 59.8753 61.6857L59.8781 61.6825C60.3669 61.1024 60.975 61.0258 61.9011 61.1551C62.1912 61.1956 62.4784 61.2505 62.789 61.3099C62.995 61.3493 63.2114 61.3907 63.4458 61.4312C64.0096 61.5285 64.6256 61.6092 65.2759 61.595C66.5994 61.5661 68.021 61.1442 69.4702 59.7844C70.8775 58.4641 72.2947 56.275 73.7028 52.7485C75.0198 52.0813 76.304 51.3836 77.5862 50.687C83.3902 47.5336 89.1526 44.4028 97.732 44.2314C101.602 44.2311 104.855 43.9302 107.851 43.6531C109.043 43.5428 110.195 43.4363 111.329 43.354C115.172 43.0749 118.868 43.0661 123.409 44.0946L120.313 53.5199C116.263 52.5264 112.808 52.5164 109.2 52.7593C108.093 52.8338 106.976 52.9315 105.825 53.0322C103.076 53.2728 100.13 53.5306 96.6481 53.5306C87.4387 53.5306 80.8933 55.9936 77.1897 61.0633C76.0585 62.5793 75.3562 64.47 75.0622 66.712C74.7621 68.9461 75.1771 71.073 76.2992 73.0771Z" stroke="#27272A"/>
<path d="M65.5212 80.4697C65.3884 81.9801 65.5212 90.8267 65.5212 92.6112V135.331C65.5212 135.387 65.5212 135.415 65.5103 135.437C65.5007 135.456 65.4854 135.471 65.4666 135.481C65.4452 135.491 65.4172 135.491 65.3612 135.491H46.6016C46.5465 135.491 46.5189 135.491 46.4978 135.481C46.4791 135.471 46.4639 135.456 46.4542 135.438C46.4431 135.417 46.4426 135.389 46.4416 135.332C45.4558 80.9251 46.4258 47.6543 46.4442 42.4204C46.4444 42.376 46.4444 42.3538 46.4554 42.3325C46.465 42.3137 46.4802 42.2985 46.499 42.289C46.5204 42.2781 46.5484 42.2781 46.6045 42.2781H63.7826C63.8386 42.2781 63.8666 42.2781 63.888 42.289C63.9068 42.2986 63.9221 42.3139 63.9317 42.3327C63.9426 42.3541 63.9426 42.3821 63.9426 42.4381V59.9856C63.9426 60.3218 63.9426 60.4899 63.9762 60.5197C64.0057 60.5458 64.0455 60.5523 64.0817 60.537C64.1231 60.5194 64.1775 60.3574 64.2863 60.0335C69.1844 45.4546 86.9875 42.2781 99.6187 42.2781C104.198 42.2781 125.551 42.007 129.597 42.0001C129.645 42.0001 129.669 42 129.69 42.0109C129.709 42.0205 129.724 42.0358 129.734 42.0546C129.745 42.076 129.745 42.104 129.745 42.16V55.6904C129.745 55.7464 129.745 55.7744 129.734 55.7958C129.724 55.8146 129.709 55.8299 129.69 55.8395C129.669 55.8504 129.641 55.8504 129.585 55.8504C121.239 55.8508 112.003 55.8822 107.82 55.8822C100.616 55.8504 91.6129 57.7928 88.175 59.1962C84.7372 60.5996 81.6579 62.3089 78.7814 64.388C75.9757 66.4665 73.4475 68.3682 71.2029 70.7583C71.2023 70.759 71.202 70.7593 71.2017 70.7596C71.2014 70.7599 71.2012 70.7601 71.2009 70.7604C71.2006 70.7607 71.2009 70.7604 71.2008 70.7605C71.1666 70.7949 69.4457 72.5339 67.7109 75.0864C65.9587 77.6647 65.654 78.9593 65.5212 80.4697Z" fill="#27272A"/>
</svg>
